<svg width="100" height="24" viewBox="0 0 100 24" fill="none" xmlns="http://www.w3.org/2000/svg">
<circle cx="4" cy="6" r="3" stroke="#CB0C9F" stroke-width="2"/>
<circle cx="16" cy="16" r="3" stroke="#9534AD" stroke-width="2"/>
<circle cx="4" cy="16" r="3" stroke="#C172D5" stroke-width="2"/>
<circle cx="10" cy="11" r="3" stroke="black" stroke-width="2"/>
<path d="M37.8849 9.36222H35.2287C35.1529 8.92661 35.0133 8.54072 34.8097 8.20455C34.6061 7.86364 34.3527 7.57481 34.0497 7.33807C33.7467 7.10133 33.401 6.92377 33.0128 6.8054C32.6293 6.68229 32.215 6.62074 31.7699 6.62074C30.9792 6.62074 30.2784 6.8196 29.6676 7.21733C29.0568 7.61032 28.5786 8.18797 28.233 8.95028C27.8873 9.70786 27.7145 10.6335 27.7145 11.7273C27.7145 12.84 27.8873 13.7775 28.233 14.5398C28.5833 15.2973 29.0616 15.8703 29.6676 16.2585C30.2784 16.642 30.9768 16.8338 31.7628 16.8338C32.1984 16.8338 32.6056 16.777 32.9844 16.6634C33.3679 16.545 33.7112 16.3722 34.0142 16.1449C34.322 15.9176 34.58 15.6383 34.7884 15.3068C35.0014 14.9754 35.1482 14.5966 35.2287 14.1705L37.8849 14.1847C37.7855 14.8759 37.5701 15.5246 37.2386 16.1307C36.9119 16.7367 36.4834 17.2718 35.9531 17.7358C35.4228 18.1951 34.8026 18.5549 34.0923 18.8153C33.3821 19.071 32.5938 19.1989 31.7273 19.1989C30.4489 19.1989 29.3078 18.9029 28.304 18.3111C27.3002 17.7192 26.5095 16.8646 25.9318 15.7472C25.3542 14.6297 25.0653 13.2898 25.0653 11.7273C25.0653 10.16 25.3565 8.82008 25.9389 7.70739C26.5213 6.58996 27.3144 5.73532 28.3182 5.14347C29.322 4.55161 30.4583 4.25568 31.7273 4.25568C32.5369 4.25568 33.2898 4.36932 33.9858 4.59659C34.6818 4.82386 35.3021 5.15767 35.8466 5.59801C36.3911 6.03362 36.8385 6.56866 37.1889 7.20312C37.544 7.83286 37.776 8.55256 37.8849 9.36222ZM45.0138 19.2131C43.9201 19.2131 42.9755 18.9858 42.18 18.5312C41.3893 18.072 40.7809 17.4233 40.3548 16.5852C39.9286 15.7424 39.7156 14.7505 39.7156 13.6094C39.7156 12.4872 39.9286 11.5024 40.3548 10.6548C40.7856 9.80256 41.387 9.13968 42.1587 8.66619C42.9305 8.18797 43.8372 7.94886 44.8789 7.94886C45.5513 7.94886 46.1857 8.05777 46.7823 8.27557C47.3836 8.48864 47.9139 8.82008 48.3732 9.26989C48.8372 9.7197 49.2018 10.2926 49.467 10.9886C49.7321 11.6799 49.8647 12.5038 49.8647 13.4602V14.2486H40.9229V12.5156H47.4002C47.3955 12.0232 47.2889 11.5852 47.0806 11.2017C46.8723 10.8134 46.5811 10.508 46.207 10.2855C45.8377 10.063 45.4068 9.9517 44.9144 9.9517C44.3888 9.9517 43.9272 10.0795 43.5295 10.3352C43.1317 10.5862 42.8216 10.9176 42.5991 11.3295C42.3813 11.7367 42.27 12.1842 42.2653 12.6719V14.1847C42.2653 14.8191 42.3813 15.3636 42.6133 15.8182C42.8453 16.268 43.1696 16.6136 43.5863 16.8551C44.003 17.0919 44.4906 17.2102 45.0494 17.2102C45.4234 17.2102 45.762 17.1581 46.065 17.054C46.368 16.9451 46.6308 16.7865 46.8533 16.5781C47.0759 16.3698 47.244 16.1117 47.3576 15.804L49.7582 16.0739C49.6067 16.7083 49.3178 17.2623 48.8917 17.7358C48.4703 18.2045 47.9305 18.5691 47.2724 18.8295C46.6142 19.0852 45.8614 19.2131 45.0138 19.2131ZM52.0398 19V8.09091H54.5327V9.90909H54.6463C54.8452 9.27936 55.1861 8.79403 55.669 8.45312C56.1567 8.10748 56.7131 7.93466 57.3381 7.93466C57.4801 7.93466 57.6387 7.94176 57.8139 7.95597C57.9938 7.96544 58.143 7.98201 58.2614 8.00568V10.3707C58.1525 10.3329 57.9796 10.2997 57.7429 10.2713C57.5109 10.2382 57.286 10.2216 57.0682 10.2216C56.5994 10.2216 56.178 10.3234 55.804 10.527C55.4347 10.7259 55.1435 11.0028 54.9304 11.358C54.7173 11.7131 54.6108 12.1226 54.6108 12.5866V19H52.0398ZM64.2788 19.2131C63.1897 19.2131 62.2546 18.974 61.4734 18.4957C60.6969 18.0175 60.0979 17.357 59.6765 16.5142C59.2598 15.6667 59.0515 14.6913 59.0515 13.5881C59.0515 12.4801 59.2646 11.5024 59.6907 10.6548C60.1168 9.80256 60.7182 9.13968 61.4947 8.66619C62.2759 8.18797 63.1992 7.94886 64.2646 7.94886C65.15 7.94886 65.9336 8.11222 66.6154 8.43892C67.302 8.76089 67.8488 9.2178 68.256 9.80966C68.6632 10.3968 68.8952 11.0833 68.9521 11.8693H66.4947C66.3952 11.3437 66.1585 10.9058 65.7844 10.5554C65.4151 10.2003 64.9203 10.0227 64.3001 10.0227C63.7745 10.0227 63.3129 10.1648 62.9151 10.4489C62.5174 10.7282 62.2073 11.1307 61.9847 11.6562C61.7669 12.1818 61.658 12.8116 61.658 13.5455C61.658 14.2888 61.7669 14.928 61.9847 15.4631C62.2025 15.9934 62.5079 16.4029 62.9009 16.6918C63.2987 16.9759 63.765 17.1179 64.3001 17.1179C64.6789 17.1179 65.0174 17.0469 65.3157 16.9048C65.6187 16.758 65.872 16.5473 66.0756 16.2727C66.2792 15.9981 66.4189 15.6643 66.4947 15.2713H68.9521C68.8905 16.0431 68.6632 16.7273 68.2702 17.3239C67.8772 17.9157 67.3422 18.3797 66.6651 18.7159C65.988 19.0473 65.1926 19.2131 64.2788 19.2131ZM73.6342 4.45455V19H71.0632V4.45455H73.6342ZM79.4173 19.2202C78.726 19.2202 78.1033 19.0971 77.5494 18.8509C77.0001 18.5999 76.5645 18.2306 76.2425 17.7429C75.9253 17.2552 75.7667 16.6539 75.7667 15.9389C75.7667 15.3234 75.8803 14.8144 76.1076 14.4119C76.3349 14.0095 76.645 13.6875 77.038 13.446C77.431 13.2045 77.8737 13.0223 78.3661 12.8991C78.8633 12.7713 79.377 12.679 79.9073 12.6222C80.5465 12.5559 81.065 12.4967 81.4627 12.4446C81.8604 12.3878 82.1493 12.3026 82.3292 12.1889C82.5138 12.0705 82.6062 11.8883 82.6062 11.642V11.5994C82.6062 11.0644 82.4476 10.6501 82.1303 10.3565C81.8131 10.063 81.3562 9.91619 80.7596 9.91619C80.1299 9.91619 79.6303 10.0535 79.261 10.3281C78.8964 10.6027 78.6502 10.9271 78.5224 11.3011L76.1218 10.9602C76.3112 10.2973 76.6237 9.74337 77.0593 9.2983C77.4949 8.84848 78.0276 8.51231 78.6573 8.28977C79.2871 8.0625 79.9831 7.94886 80.7454 7.94886C81.271 7.94886 81.7942 8.01042 82.315 8.13352C82.8358 8.25663 83.3117 8.46023 83.7425 8.74432C84.1734 9.02367 84.5191 9.40483 84.7795 9.88778C85.0446 10.3707 85.1772 10.9744 85.1772 11.6989V19H82.7056V17.5014H82.6204C82.4641 17.8045 82.244 18.0885 81.9599 18.3537C81.6805 18.6141 81.3278 18.8248 80.9016 18.9858C80.4802 19.142 79.9854 19.2202 79.4173 19.2202ZM80.0849 17.331C80.601 17.331 81.0484 17.2292 81.4272 17.0256C81.806 16.8172 82.0972 16.5426 82.3008 16.2017C82.5091 15.8608 82.6133 15.4891 82.6133 15.0866V13.8011C82.5328 13.8674 82.3955 13.929 82.2013 13.9858C82.012 14.0426 81.7989 14.0923 81.5621 14.1349C81.3254 14.1776 81.091 14.2154 80.859 14.2486C80.627 14.2817 80.4258 14.3101 80.2553 14.3338C79.8718 14.3859 79.5285 14.4711 79.2255 14.5895C78.9225 14.7079 78.6834 14.8736 78.5082 15.0866C78.333 15.295 78.2454 15.5649 78.2454 15.8963C78.2454 16.3698 78.4182 16.7273 78.7638 16.9688C79.1095 17.2102 79.5498 17.331 80.0849 17.331ZM87.7624 19V8.09091H90.3335V19H87.7624ZM89.055 6.54261C88.6478 6.54261 88.2975 6.40767 88.0039 6.13778C87.7103 5.86316 87.5636 5.53409 87.5636 5.15057C87.5636 4.76231 87.7103 4.43324 88.0039 4.16335C88.2975 3.88873 88.6478 3.75142 89.055 3.75142C89.467 3.75142 89.8174 3.88873 90.1062 4.16335C90.3997 4.43324 90.5465 4.76231 90.5465 5.15057C90.5465 5.53409 90.3997 5.86316 90.1062 6.13778C89.8174 6.40767 89.467 6.54261 89.055 6.54261ZM92.9773 19V8.09091H95.4702V9.90909H95.5838C95.7827 9.27936 96.1236 8.79403 96.6065 8.45312C97.0942 8.10748 97.6506 7.93466 98.2756 7.93466C98.4176 7.93466 98.5762 7.94176 98.7514 7.95597C98.9313 7.96544 99.0805 7.98201 99.1989 8.00568V10.3707C99.09 10.3329 98.9171 10.2997 98.6804 10.2713C98.4484 10.2382 98.2235 10.2216 98.0057 10.2216C97.5369 10.2216 97.1155 10.3234 96.7415 10.527C96.3722 10.7259 96.081 11.0028 95.8679 11.358C95.6548 11.7131 95.5483 12.1226 95.5483 12.5866V19H92.9773Z" fill="#1E1E1E"/>
<circle cx="16" cy="6" r="3" stroke="#E370AB" stroke-width="2"/>
</svg>
